<?xml version="1.0" encoding="utf-8"?>
<svg xmlns="http://www.w3.org/2000/svg" viewBox="0 0 770 270" width="77mm" height="27mm" xmlns:bx="https://boxy-svg.com"><defs><bx:export><bx:file format="svg" units="mm"/></bx:export></defs><path d="M 293.084 76.184 Q 293.867 68.876 296.129 61.873 Q 298.391 54.869 302.045 48.518 Q 302.654 47.387 303.785 46.648 Q 304.916 45.908 306.221 45.908 L 335.018 45.908 L 339.716 30.335 L 301.262 30.335 Q 296.39 30.335 292.562 32.51 Q 288.734 34.685 285.732 38.296 Q 282.731 41.906 280.556 46.517 Q 278.381 51.128 276.771 55.957 Q 275.162 60.785 274.118 65.483 Q 273.074 70.181 272.378 73.835 Q 271.769 77.141 272.03 80.882 Q 272.291 84.623 273.596 87.842 Q 274.901 91.061 277.467 93.323 Q 280.034 95.585 284.123 96.02 Q 302.306 98.021 320.402 95.237 L 325.013 79.142 Q 317.879 80.534 310.614 80.578 Q 303.35 80.621 296.042 79.577 Q 294.737 79.316 293.823 78.359 Q 292.91 77.402 293.084 76.184 Z M 401.469 44.603 L 401.469 42.254 Q 400.338 37.556 397.206 35.077 Q 394.074 32.597 390.029 31.466 Q 385.983 30.335 381.503 30.161 Q 377.022 29.987 373.194 29.987 Q 365.451 29.987 359.97 31.162 Q 354.489 32.336 350.879 34.207 Q 347.268 36.077 345.224 38.339 Q 343.179 40.601 342.309 42.776 Q 340.656 46.778 339.003 51.346 Q 337.35 55.913 335.915 60.698 Q 334.479 65.483 333.392 70.312 Q 332.304 75.14 331.869 79.664 Q 331.521 83.579 332.522 86.32 Q 333.522 89.06 335.523 90.931 Q 337.524 92.801 340.265 93.889 Q 343.005 94.976 346.137 95.542 Q 349.269 96.107 352.488 96.238 Q 355.707 96.368 358.665 96.368 Q 362.754 96.368 366.8 96.02 Q 370.845 95.672 374.934 94.976 Q 379.98 94.106 384.243 91.061 Q 388.506 88.016 390.681 83.231 Q 394.77 73.835 397.38 64.222 Q 399.99 54.608 401.469 44.603 Z M 371.889 77.837 Q 371.454 79.838 369.975 80.969 Q 368.496 82.1 366.539 82.622 Q 364.581 83.144 362.45 83.275 Q 360.318 83.405 358.665 83.405 Q 356.925 83.579 355.446 83.144 Q 353.967 82.709 353.01 81.796 Q 352.053 80.882 351.662 79.534 Q 351.27 78.185 351.705 76.445 Q 353.271 69.05 355.533 61.829 Q 357.795 54.608 360.405 47.822 Q 361.014 46.169 362.319 45.169 Q 363.624 44.168 365.234 43.603 Q 366.843 43.037 368.583 42.863 Q 370.323 42.689 371.802 42.689 Q 373.107 42.689 374.934 42.863 Q 376.761 43.037 378.284 43.603 Q 379.806 44.168 380.676 45.343 Q 381.546 46.517 381.111 48.518 Q 379.632 56.087 377.283 63.352 Q 374.934 70.616 371.889 77.837 Z M 463.925 51.128 L 450.527 95.411 L 470.015 95.411 L 489.416 30.596 L 471.929 30.596 Q 468.536 30.596 465.317 32.206 Q 462.098 33.815 459.836 36.599 L 447.395 52.259 L 444.524 37.382 Q 444.176 35.816 443.262 34.598 Q 442.349 33.38 441.044 32.467 Q 439.739 31.553 438.173 31.075 Q 436.607 30.596 435.041 30.596 L 415.553 30.596 L 396.065 95.411 L 415.292 95.411 L 428.864 50.345 L 434.78 81.317 L 439.043 81.317 Z M 527.419 76.967 Q 530.203 76.967 532.769 75.923 Q 535.336 74.879 537.598 73.183 Q 539.86 71.486 541.774 69.268 Q 543.688 67.049 545.254 64.7 Q 548.038 60.35 549.517 55.391 Q 550.996 50.432 550.996 45.299 Q 550.996 42.689 550.039 40.253 Q 549.082 37.817 547.342 35.99 Q 544.384 33.032 540.512 31.814 Q 536.641 30.596 532.465 30.596 L 499.492 30.596 L 479.917 95.411 L 499.318 95.411 L 504.973 76.967 Z M 508.888 63.656 L 515.413 42.341 L 527.506 42.341 Q 528.724 42.341 529.681 42.907 Q 530.638 43.472 531.334 44.386 Q 532.03 45.299 532.421 46.43 Q 532.813 47.561 532.813 48.605 Q 532.813 51.65 531.725 54.347 Q 530.638 57.044 528.637 59.219 Q 527.854 60.089 527.114 60.916 Q 526.375 61.742 525.287 62.351 Q 524.2 62.96 522.634 63.308 Q 521.068 63.656 518.632 63.656 Z M 590.88 81.665 L 590.88 95.411 L 608.889 95.411 L 608.889 30.509 L 590.097 30.509 Q 589.488 30.509 587.922 30.77 Q 586.356 31.031 584.181 32.249 Q 582.006 33.467 579.44 35.947 Q 576.873 38.426 574.176 42.863 L 542.682 95.411 L 563.127 95.411 L 570.957 81.665 Z M 577.569 69.92 L 591.228 45.473 L 591.228 69.92 Z M 648.24 90.191 Q 645.369 92.54 643.281 95.672 Q 641.193 98.804 640.323 102.545 Q 640.149 103.154 640.801 103.328 Q 641.454 103.502 641.889 102.893 Q 644.934 99.152 650.763 97.282 Q 656.592 95.411 664.77 95.411 L 686.607 95.411 L 690.348 83.057 L 672.948 83.057 Q 676.689 73.835 679.299 64.352 Q 681.909 54.869 683.388 44.777 Q 683.388 41.21 681.996 38.774 Q 680.604 36.338 678.298 34.772 Q 675.993 33.206 673.035 32.38 Q 670.077 31.553 666.901 31.162 Q 663.726 30.77 660.637 30.683 Q 657.549 30.596 655.026 30.596 Q 650.676 30.596 646.021 30.857 Q 641.367 31.118 637.147 32.38 Q 632.928 33.641 629.535 36.208 Q 626.142 38.774 624.228 43.385 Q 621.009 51.302 618.399 59.524 Q 615.789 67.745 614.223 76.184 Q 613.788 79.403 614.179 82.535 Q 614.571 85.667 615.876 88.321 Q 617.181 90.974 619.486 92.932 Q 621.792 94.889 625.185 95.759 Q 628.23 96.455 631.231 96.629 Q 634.233 96.803 637.104 96.89 Q 639.105 93.671 642.019 91.409 Q 644.934 89.147 648.24 87.581 Q 650.154 86.711 652.111 86.233 Q 654.069 85.754 656.244 85.58 Q 651.807 87.146 648.24 90.191 Z M 659.724 43.907 Q 660.507 44.081 661.159 44.647 Q 661.812 45.212 662.29 45.995 Q 662.769 46.778 662.986 47.648 Q 663.204 48.518 663.03 49.127 Q 661.29 56.609 658.984 63.917 Q 656.679 71.225 653.808 78.533 Q 652.938 80.534 651.067 82.187 Q 649.197 83.84 646.935 83.84 Q 644.151 84.188 641.236 84.145 Q 638.322 84.101 635.712 83.057 Q 633.972 82.361 633.537 80.578 Q 633.102 78.794 633.537 77.054 Q 635.277 69.659 637.408 62.438 Q 639.54 55.217 642.411 48.431 Q 643.107 46.517 644.673 45.386 Q 646.239 44.255 648.24 43.82 Q 651.024 43.298 653.982 43.472 Q 656.94 43.646 659.724 43.907 Z M 757.064 30.509 L 723.656 30.509 L 723.656 30.335 Q 716.087 30.248 710.997 31.727 Q 705.908 33.206 702.21 36.121 Q 698.513 39.035 695.729 43.298 Q 692.945 47.561 690.074 53.042 Q 689.9 53.651 690.552 53.825 Q 691.205 53.999 691.64 53.477 Q 693.032 51.737 694.598 50.258 Q 696.164 48.779 698.817 47.735 Q 701.471 46.691 705.69 46.213 Q 709.91 45.734 716.696 45.908 L 701.558 95.411 L 721.22 95.411 L 736.184 45.908 L 752.366 45.908 Z" style="fill: rgb(51, 51, 51); text-wrap-mode: nowrap;"/><path d="M 60.02 170.253 C 59.334 173.005 62.345 174.381 65.699 174.381 C 69.053 174.381 72.75 173.005 73.436 170.253 L 78.068 151.677 L 86.582 151.677 C 98.45 151.677 109.11 146.173 112.712 131.725 L 112.82 131.295 C 116.422 116.847 108.807 111.515 97.455 111.515 L 79.653 111.515 C 76.643 111.515 74.194 113.407 73.657 115.557 Z M 93.679 123.211 C 98.495 123.211 100.733 125.963 99.275 131.811 L 99.039 132.757 C 97.581 138.605 93.971 141.357 89.155 141.357 L 80.641 141.357 L 85.165 123.211 Z M 129.07 174.897 C 140.938 174.897 151.599 169.393 155.287 154.601 L 160.969 131.811 C 164.657 117.019 156.741 111.515 144.873 111.515 C 133.005 111.515 122.431 117.019 118.743 131.811 L 113.061 154.601 C 109.373 169.393 117.202 174.897 129.07 174.897 Z M 141.871 154.601 C 140.391 160.535 136.803 163.201 131.987 163.201 C 127.171 163.201 124.997 160.535 126.477 154.601 L 132.159 131.811 C 133.639 125.877 137.141 123.211 141.957 123.211 C 146.773 123.211 149.033 125.877 147.553 131.811 Z M 160.874 170.253 C 160.187 173.005 163.198 174.381 166.552 174.381 C 169.906 174.381 173.603 173.005 174.29 170.253 L 179.457 149.527 L 185.133 149.527 L 191.212 172.403 C 191.707 174.209 193.17 174.897 194.89 174.897 C 198.846 174.897 204.218 171.285 205.055 167.931 C 205.162 167.501 205.226 166.899 205.01 166.383 L 199.257 147.377 C 205.856 145.055 211.614 139.551 214.016 129.919 C 217.511 115.901 209.231 111.515 197.449 111.515 L 179.647 111.515 C 177.153 111.515 175.047 113.407 174.511 115.557 Z M 194.532 123.211 C 199.348 123.211 201.779 125.189 200.278 131.209 C 198.777 137.229 195.36 139.207 190.544 139.207 L 182.03 139.207 L 186.018 123.211 Z M 226.042 111.515 C 223.204 111.515 221.228 114.611 220.521 117.449 C 219.706 120.717 220.46 123.555 223.04 123.555 L 234.908 123.555 L 223.265 170.253 C 222.579 173.005 225.59 174.381 228.944 174.381 C 232.298 174.381 235.995 173.005 236.681 170.253 L 248.324 123.555 L 260.192 123.555 C 262.772 123.555 264.942 120.717 265.757 117.449 C 266.464 114.611 266.032 111.515 263.194 111.515 Z M 256.666 174.381 C 258.816 174.381 260.708 173.693 261.674 171.887 L 267.278 161.137 L 285.424 161.137 L 285.668 171.887 C 285.734 173.693 287.282 174.381 289.432 174.381 C 293.13 174.381 298.611 172.059 299.404 168.877 C 299.469 168.619 299.468 168.275 299.468 167.931 L 296.466 115.471 C 296.27 112.461 292.765 110.999 288.809 110.999 C 284.853 110.999 280.618 112.461 278.922 115.471 L 249.846 167.931 C 249.674 168.275 249.503 168.619 249.438 168.877 C 248.645 172.059 252.968 174.381 256.666 174.381 Z M 272.603 150.817 L 284.628 127.769 L 285.159 150.817 Z M 304.925 170.339 C 304.389 172.489 306.153 174.381 309.765 174.381 L 328.857 174.381 C 338.575 174.381 347.366 169.479 350.754 155.891 L 351.204 154.085 C 353.348 145.485 350.529 142.303 345.777 140.325 C 350.828 138.347 354.716 133.789 356.453 126.823 C 359.498 114.611 351.67 111.515 343.07 111.515 L 325.44 111.515 C 322.516 111.515 319.249 112.891 318.562 115.643 Z M 320.164 162.685 L 324.452 145.485 L 333.052 145.485 C 337.352 145.485 339.417 147.549 337.959 153.397 L 337.616 154.773 C 336.244 160.277 333.064 162.685 328.764 162.685 Z M 330.006 123.211 L 339.036 123.211 C 342.304 123.211 343.187 126.221 342.437 129.231 C 341.708 132.155 339.323 135.165 336.055 135.165 L 327.025 135.165 Z M 387.03 174.381 C 389.61 174.381 391.629 171.457 392.358 168.533 C 393.087 165.609 392.526 162.685 389.946 162.685 L 370.338 162.685 L 382.088 115.557 C 382.796 112.719 379.742 111.515 376.388 111.515 C 373.034 111.515 369.38 112.719 368.672 115.557 L 355.035 170.253 C 354.349 173.005 356.93 174.381 359.854 174.381 Z M 423.389 123.211 L 446.437 123.211 C 449.017 123.211 451.165 120.459 451.958 117.277 C 452.644 114.525 452.191 111.515 449.353 111.515 L 418.737 111.515 C 415.813 111.515 412.546 112.891 411.859 115.643 L 398.244 170.253 C 397.557 173.005 400.138 174.381 403.062 174.381 L 433.678 174.381 C 436.516 174.381 438.471 171.371 439.157 168.619 C 439.95 165.437 439.175 162.685 436.595 162.685 L 413.547 162.685 L 417.192 148.065 L 430.092 148.065 C 432.93 148.065 434.82 145.313 435.399 142.991 C 436.085 140.239 435.245 137.745 432.665 137.745 L 419.765 137.745 Z M 460.898 168.619 C 460.126 171.715 465.095 175.241 467.847 175.241 C 468.793 175.241 470.448 174.811 471.372 173.865 L 482.157 161.997 L 487.11 173.865 C 487.541 174.897 488.745 175.241 489.777 175.241 C 493.303 175.241 499.492 171.457 500.2 168.619 C 500.414 167.759 500.22 166.813 499.983 166.383 L 493.374 153.569 L 505.17 141.787 C 505.986 140.927 506.394 140.325 506.566 139.637 C 507.316 136.627 502.476 132.929 499.38 132.929 C 498.434 132.929 496.973 133.273 496.006 134.391 L 486.252 145.571 L 482.181 134.305 C 481.729 133.015 480.202 132.929 479.686 132.929 C 476.246 132.929 469.734 136.627 468.984 139.637 C 468.769 140.497 469.071 141.357 469.308 141.787 L 475.164 153.483 L 462.229 166.383 C 461.649 166.985 461.091 167.845 460.898 168.619 Z M 540.362 111.515 C 529.268 111.515 520.219 116.073 517.539 126.823 C 515.759 133.961 518.127 138.261 522.772 139.981 C 515.872 142.131 510.286 147.291 508.077 156.149 L 507.82 157.181 C 504.625 169.995 512.691 174.897 524.559 174.897 C 536.427 174.897 546.851 169.995 550.046 157.181 L 550.303 156.149 C 552.512 147.291 549.584 142.131 543.756 139.981 C 549.259 138.261 553.771 133.961 555.551 126.823 C 558.231 116.073 551.456 111.515 540.362 111.515 Z M 537.037 155.547 C 535.601 161.309 532.141 164.147 527.239 164.147 C 522.509 164.147 520.164 161.481 521.643 155.547 L 522.115 153.655 C 523.509 148.065 527.076 145.485 531.892 145.485 C 536.708 145.485 538.903 148.065 537.509 153.655 Z M 537.681 122.265 C 541.551 122.265 543.316 124.157 542.222 128.543 C 541.107 133.015 538.442 134.735 534.572 134.735 C 530.702 134.735 528.895 133.015 530.01 128.543 C 531.104 124.157 533.811 122.265 537.681 122.265 Z M 586.119 135.767 C 581.991 135.767 577.928 136.541 574.426 139.551 L 576.356 131.811 C 577.835 125.877 581.51 123.211 586.584 123.211 C 590.626 123.211 593.637 124.931 592.822 128.199 C 591.836 132.155 594.868 133.101 598.566 133.101 C 602.866 133.101 605.166 131.811 606.195 127.683 C 607.975 120.545 604.464 111.515 589.93 111.515 C 577.546 111.515 566.628 117.019 562.94 131.811 L 557.257 154.601 C 553.569 169.393 561.485 174.897 573.353 174.897 C 585.221 174.897 595.795 169.393 599.483 154.601 L 599.676 153.827 C 603.107 140.067 595.923 135.767 586.119 135.767 Z M 570.823 153.999 C 572.239 148.323 575.806 146.087 580.45 146.087 C 585.352 146.087 587.59 148.495 586.025 154.773 L 585.832 155.547 C 584.352 161.481 580.871 164.061 576.055 164.061 C 571.239 164.061 568.958 161.481 570.438 155.547 Z M 606.02 153.741 C 605.205 157.009 606.303 159.159 608.711 159.159 L 631.071 159.159 C 633.135 159.159 635.735 157.009 636.55 153.741 C 637.322 150.645 635.859 148.237 633.795 148.237 L 611.435 148.237 C 609.027 148.237 606.792 150.645 606.02 153.741 Z M 672.024 135.767 C 667.896 135.767 663.833 136.541 660.33 139.551 L 662.26 131.811 C 663.74 125.877 667.414 123.211 672.488 123.211 C 676.53 123.211 679.541 124.931 678.727 128.199 C 677.74 132.155 680.772 133.101 684.47 133.101 C 688.77 133.101 691.07 131.811 692.099 127.683 C 693.879 120.545 690.368 111.515 675.834 111.515 C 663.45 111.515 652.532 117.019 648.844 131.811 L 643.162 154.601 C 639.474 169.393 647.389 174.897 659.257 174.897 C 671.125 174.897 681.7 169.393 685.388 154.601 L 685.581 153.827 C 689.012 140.067 681.828 135.767 672.024 135.767 Z M 656.728 153.999 C 658.143 148.323 661.711 146.087 666.355 146.087 C 671.257 146.087 673.494 148.495 671.929 154.773 L 671.736 155.547 C 670.256 161.481 666.775 164.061 661.959 164.061 C 657.143 164.061 654.862 161.481 656.342 155.547 Z M 709.297 170.253 C 708.611 173.005 711.622 174.381 714.976 174.381 C 718.33 174.381 722.027 173.005 722.713 170.253 L 724.986 161.137 L 728.684 161.137 C 730.748 161.137 733.584 158.041 734.356 154.945 C 735.127 151.849 734.523 148.753 731.771 148.753 L 728.073 148.753 L 729.574 142.733 C 730.282 139.895 727.228 138.691 723.874 138.691 C 720.52 138.691 716.866 139.895 716.158 142.733 L 714.657 148.753 L 707.261 148.753 L 730.095 118.223 C 730.503 117.621 730.804 117.105 730.933 116.589 C 731.705 113.493 727.812 111.515 725.49 111.515 C 723.34 111.515 720.954 112.461 719.042 114.955 L 689.463 153.913 C 688.711 154.859 688.303 155.805 688.132 156.493 C 687.381 159.503 688.952 161.137 691.446 161.137 L 711.57 161.137 Z" transform="matrix(1, 0, 0, 1, -11.181388, 24.459822)" style="fill: rgb(51, 51, 51); text-wrap-mode: nowrap;"/><path transform="matrix(1, 0, 0, 1, -11.181388, 24.459822)" style="fill: rgb(51, 51, 51); text-wrap-mode: nowrap;"/><path d="M 20.802 107.99 L 740.622 107.291 L 736.429 122.666 L 15.91 122.666 L 20.802 107.99 Z" style="fill: rgb(51, 51, 51);"/></svg>