<?xml version="1.0" encoding="utf-8"?>
<svg xmlns="http://www.w3.org/2000/svg" width="628px" height="132px" viewBox="0 0 628 132" preserveAspectRatio="xMidYMid slice" xmlns:bx="https://boxy-svg.com"><defs><bx:export><bx:file format="svg"/></bx:export></defs><path d="M 153.313 70.593 C 153.835 65.721 154.85 60.951 156.358 56.282 C 157.866 51.613 159.838 47.161 162.274 42.927 C 162.68 42.173 163.26 41.55 164.014 41.057 C 164.768 40.564 165.58 40.317 166.45 40.317 L 195.247 40.317 L 199.945 24.744 L 161.491 24.744 C 158.243 24.744 155.343 25.469 152.791 26.919 C 150.239 28.369 147.963 30.298 145.961 32.705 C 143.961 35.112 142.235 37.852 140.785 40.926 C 139.335 44 138.074 47.147 137 50.366 C 135.928 53.585 135.043 56.76 134.347 59.892 C 133.651 63.024 133.071 65.808 132.607 68.244 C 132.201 70.448 132.085 72.797 132.259 75.291 C 132.433 77.785 132.955 80.105 133.825 82.251 C 134.695 84.397 135.986 86.224 137.696 87.732 C 139.408 89.24 141.626 90.139 144.352 90.429 C 156.474 91.763 168.567 91.502 180.631 89.646 L 185.242 73.551 C 180.486 74.479 175.687 74.958 170.843 74.987 C 166.001 75.016 161.143 74.682 156.271 73.986 C 155.401 73.812 154.662 73.406 154.052 72.768 C 153.444 72.13 153.197 71.405 153.313 70.593 Z M 261.698 39.012 L 261.698 36.663 C 260.944 33.531 259.523 31.139 257.435 29.486 C 255.347 27.833 252.955 26.629 250.258 25.875 C 247.561 25.121 244.719 24.686 241.732 24.57 C 238.745 24.454 235.975 24.396 233.423 24.396 C 228.261 24.396 223.853 24.788 220.199 25.571 C 216.545 26.354 213.515 27.369 211.108 28.616 C 208.701 29.863 206.816 31.24 205.453 32.748 C 204.09 34.256 203.118 35.735 202.538 37.185 C 201.436 39.853 200.334 42.71 199.232 45.755 C 198.13 48.8 197.101 51.917 196.144 55.107 C 195.187 58.297 194.346 61.502 193.621 64.721 C 192.896 67.94 192.388 71.057 192.098 74.073 C 191.866 76.683 192.084 78.902 192.751 80.729 C 193.418 82.556 194.418 84.093 195.752 85.34 C 197.086 86.587 198.667 87.573 200.494 88.298 C 202.321 89.023 204.278 89.574 206.366 89.951 C 208.454 90.328 210.571 90.56 212.717 90.647 C 214.863 90.734 216.922 90.777 218.894 90.777 C 221.62 90.777 224.332 90.661 227.029 90.429 C 229.726 90.197 232.437 89.849 235.163 89.385 C 238.527 88.805 241.63 87.5 244.472 85.47 C 247.314 83.44 249.46 80.83 250.91 77.64 C 253.636 71.376 255.869 65.04 257.609 58.631 C 259.349 52.222 260.712 45.682 261.698 39.012 Z M 232.118 72.246 C 231.828 73.58 231.19 74.624 230.204 75.378 C 229.218 76.132 228.073 76.683 226.768 77.031 C 225.463 77.379 224.1 77.597 222.679 77.684 C 221.258 77.771 219.996 77.814 218.894 77.814 C 217.734 77.93 216.661 77.843 215.675 77.553 C 214.689 77.263 213.877 76.814 213.239 76.205 C 212.601 75.596 212.152 74.842 211.891 73.943 C 211.63 73.044 211.644 72.014 211.934 70.854 C 212.978 65.924 214.254 61.052 215.762 56.238 C 217.27 51.424 218.894 46.755 220.634 42.231 C 221.04 41.129 221.678 40.245 222.548 39.578 C 223.418 38.911 224.39 38.389 225.463 38.012 C 226.536 37.635 227.652 37.388 228.812 37.272 C 229.972 37.156 231.045 37.098 232.031 37.098 C 232.901 37.098 233.945 37.156 235.163 37.272 C 236.381 37.388 237.498 37.635 238.513 38.012 C 239.528 38.389 240.325 38.969 240.905 39.752 C 241.485 40.535 241.63 41.593 241.34 42.927 C 240.354 47.973 239.078 52.918 237.512 57.761 C 235.946 62.604 234.148 67.432 232.118 72.246 Z M 324.154 45.537 L 310.756 89.82 L 330.244 89.82 L 349.645 25.005 L 332.158 25.005 C 329.896 25.005 327.692 25.542 325.546 26.615 C 323.4 27.688 321.573 29.152 320.065 31.008 L 307.624 46.668 L 304.753 31.791 C 304.521 30.747 304.101 29.819 303.491 29.007 C 302.883 28.195 302.143 27.485 301.273 26.876 C 300.403 26.267 299.446 25.803 298.402 25.484 C 297.358 25.165 296.314 25.005 295.27 25.005 L 275.782 25.005 L 256.294 89.82 L 275.521 89.82 L 289.093 44.754 L 295.009 75.726 L 299.272 75.726 L 324.154 45.537 Z M 387.648 71.376 C 389.504 71.376 391.288 71.028 392.998 70.332 C 394.71 69.636 396.319 68.723 397.827 67.592 C 399.335 66.461 400.727 65.156 402.003 63.677 C 403.279 62.198 404.439 60.675 405.483 59.109 C 407.339 56.209 408.76 53.106 409.746 49.8 C 410.732 46.494 411.225 43.13 411.225 39.708 C 411.225 37.968 410.906 36.286 410.268 34.662 C 409.63 33.038 408.731 31.617 407.571 30.399 C 405.599 28.427 403.323 27.035 400.741 26.223 C 398.161 25.411 395.478 25.005 392.694 25.005 L 359.721 25.005 L 340.146 89.82 L 359.547 89.82 L 365.202 71.376 L 387.648 71.376 Z M 369.117 58.065 L 375.642 36.75 L 387.735 36.75 C 388.547 36.75 389.272 36.939 389.91 37.316 C 390.548 37.693 391.099 38.186 391.563 38.795 C 392.027 39.404 392.39 40.085 392.65 40.839 C 392.912 41.593 393.042 42.318 393.042 43.014 C 393.042 45.044 392.68 46.958 391.954 48.756 C 391.23 50.554 390.2 52.178 388.866 53.628 C 388.344 54.208 387.837 54.774 387.343 55.325 C 386.851 55.876 386.242 56.354 385.516 56.76 C 384.792 57.166 383.907 57.485 382.863 57.717 C 381.819 57.949 380.485 58.065 378.861 58.065 L 369.117 58.065 Z M 451.109 76.074 L 451.109 89.82 L 469.118 89.82 L 469.118 24.918 L 450.326 24.918 C 449.92 24.918 449.195 25.005 448.151 25.179 C 447.107 25.353 445.86 25.846 444.41 26.658 C 442.96 27.47 441.38 28.703 439.669 30.356 C 437.958 32.009 436.203 34.314 434.405 37.272 L 402.911 89.82 L 423.356 89.82 L 431.186 76.074 L 451.109 76.074 Z M 437.798 64.329 L 451.457 39.882 L 451.457 64.329 L 437.798 64.329 Z M 508.469 84.6 C 506.555 86.166 504.902 87.993 503.51 90.081 C 502.118 92.169 501.132 94.46 500.552 96.954 C 500.436 97.36 500.596 97.621 501.03 97.737 C 501.466 97.853 501.828 97.708 502.118 97.302 C 504.148 94.808 507.106 92.938 510.992 91.691 C 514.878 90.444 519.547 89.82 524.999 89.82 L 546.836 89.82 L 550.577 77.466 L 533.177 77.466 C 535.671 71.318 537.788 65.083 539.528 58.761 C 541.268 52.439 542.631 45.914 543.617 39.186 C 543.617 36.808 543.153 34.807 542.225 33.183 C 541.297 31.559 540.065 30.225 538.527 29.181 C 536.991 28.137 535.236 27.34 533.264 26.789 C 531.292 26.238 529.248 25.832 527.13 25.571 C 525.014 25.31 522.926 25.15 520.866 25.092 C 518.808 25.034 516.937 25.005 515.255 25.005 C 512.355 25.005 509.354 25.092 506.25 25.266 C 503.148 25.44 500.19 25.948 497.376 26.789 C 494.564 27.63 492.026 28.906 489.764 30.617 C 487.502 32.328 485.733 34.72 484.457 37.794 C 482.311 43.072 480.368 48.452 478.628 53.933 C 476.888 59.414 475.496 64.967 474.452 70.593 C 474.162 72.739 474.148 74.856 474.408 76.944 C 474.67 79.032 475.235 80.961 476.105 82.73 C 476.975 84.499 478.179 86.036 479.715 87.341 C 481.253 88.646 483.152 89.588 485.414 90.168 C 487.444 90.632 489.46 90.922 491.46 91.038 C 493.462 91.154 495.419 91.241 497.333 91.299 C 498.667 89.153 500.306 87.326 502.248 85.818 C 504.192 84.31 506.265 83.034 508.469 81.99 C 509.745 81.41 511.036 80.961 512.34 80.642 C 513.646 80.323 515.023 80.105 516.473 79.989 C 513.515 81.033 510.847 82.57 508.469 84.6 Z M 519.953 38.316 C 520.475 38.432 520.954 38.679 521.388 39.056 C 521.824 39.433 522.201 39.882 522.519 40.404 C 522.839 40.926 523.071 41.477 523.215 42.057 C 523.361 42.637 523.375 43.13 523.259 43.536 C 522.099 48.524 520.751 53.454 519.213 58.326 C 517.677 63.198 515.951 68.07 514.037 72.942 C 513.457 74.276 512.544 75.494 511.296 76.596 C 510.05 77.698 508.672 78.249 507.164 78.249 C 505.308 78.481 503.409 78.583 501.465 78.554 C 499.523 78.525 497.681 78.162 495.941 77.466 C 494.781 77.002 494.056 76.176 493.766 74.987 C 493.476 73.798 493.476 72.623 493.766 71.463 C 494.926 66.533 496.217 61.661 497.637 56.847 C 499.059 52.033 500.726 47.364 502.64 42.84 C 503.104 41.564 503.858 40.549 504.902 39.795 C 505.946 39.041 507.135 38.519 508.469 38.229 C 510.325 37.881 512.239 37.765 514.211 37.881 C 516.183 37.997 518.097 38.142 519.953 38.316 Z M 617.293 24.918 L 583.885 24.918 L 583.885 24.744 C 578.839 24.686 574.62 25.15 571.226 26.136 C 567.834 27.122 564.905 28.587 562.439 30.53 C 559.975 32.473 557.814 34.865 555.958 37.707 C 554.102 40.549 552.217 43.797 550.303 47.451 C 550.187 47.857 550.347 48.118 550.781 48.234 C 551.217 48.35 551.579 48.234 551.869 47.886 C 552.797 46.726 553.783 45.653 554.827 44.667 C 555.871 43.681 557.278 42.84 559.046 42.144 C 560.816 41.448 563.107 40.941 565.919 40.622 C 568.733 40.303 572.401 40.201 576.925 40.317 L 561.787 89.82 L 581.449 89.82 L 596.413 40.317 L 612.595 40.317 L 617.293 24.918 Z" style="fill: rgb(51, 51, 51); text-wrap-mode: nowrap;"/><path d="M 60.02 170.253 C 59.334 173.005 62.345 174.381 65.699 174.381 C 69.053 174.381 72.75 173.005 73.436 170.253 L 78.068 151.677 L 86.582 151.677 C 98.45 151.677 109.11 146.173 112.712 131.725 L 112.82 131.295 C 116.422 116.847 108.807 111.515 97.455 111.515 L 79.653 111.515 C 76.643 111.515 74.194 113.407 73.657 115.557 Z M 93.679 123.211 C 98.495 123.211 100.733 125.963 99.275 131.811 L 99.039 132.757 C 97.581 138.605 93.971 141.357 89.155 141.357 L 80.641 141.357 L 85.165 123.211 Z M 129.07 174.897 C 140.938 174.897 151.599 169.393 155.287 154.601 L 160.969 131.811 C 164.657 117.019 156.741 111.515 144.873 111.515 C 133.005 111.515 122.431 117.019 118.743 131.811 L 113.061 154.601 C 109.373 169.393 117.202 174.897 129.07 174.897 Z M 141.871 154.601 C 140.391 160.535 136.803 163.201 131.987 163.201 C 127.171 163.201 124.997 160.535 126.477 154.601 L 132.159 131.811 C 133.639 125.877 137.141 123.211 141.957 123.211 C 146.773 123.211 149.033 125.877 147.553 131.811 Z M 160.874 170.253 C 160.187 173.005 163.198 174.381 166.552 174.381 C 169.906 174.381 173.603 173.005 174.29 170.253 L 179.457 149.527 L 185.133 149.527 L 191.212 172.403 C 191.707 174.209 193.17 174.897 194.89 174.897 C 198.846 174.897 204.218 171.285 205.055 167.931 C 205.162 167.501 205.226 166.899 205.01 166.383 L 199.257 147.377 C 205.856 145.055 211.614 139.551 214.016 129.919 C 217.511 115.901 209.231 111.515 197.449 111.515 L 179.647 111.515 C 177.153 111.515 175.047 113.407 174.511 115.557 Z M 194.532 123.211 C 199.348 123.211 201.779 125.189 200.278 131.209 C 198.777 137.229 195.36 139.207 190.544 139.207 L 182.03 139.207 L 186.018 123.211 Z M 226.042 111.515 C 223.204 111.515 221.228 114.611 220.521 117.449 C 219.706 120.717 220.46 123.555 223.04 123.555 L 234.908 123.555 L 223.265 170.253 C 222.579 173.005 225.59 174.381 228.944 174.381 C 232.298 174.381 235.995 173.005 236.681 170.253 L 248.324 123.555 L 260.192 123.555 C 262.772 123.555 264.942 120.717 265.757 117.449 C 266.464 114.611 266.032 111.515 263.194 111.515 Z M 256.666 174.381 C 258.816 174.381 260.708 173.693 261.674 171.887 L 267.278 161.137 L 285.424 161.137 L 285.668 171.887 C 285.734 173.693 287.282 174.381 289.432 174.381 C 293.13 174.381 298.611 172.059 299.404 168.877 C 299.469 168.619 299.468 168.275 299.468 167.931 L 296.466 115.471 C 296.27 112.461 292.765 110.999 288.809 110.999 C 284.853 110.999 280.618 112.461 278.922 115.471 L 249.846 167.931 C 249.674 168.275 249.503 168.619 249.438 168.877 C 248.645 172.059 252.968 174.381 256.666 174.381 Z M 272.603 150.817 L 284.628 127.769 L 285.159 150.817 Z M 304.925 170.339 C 304.389 172.489 306.153 174.381 309.765 174.381 L 328.857 174.381 C 338.575 174.381 347.366 169.479 350.754 155.891 L 351.204 154.085 C 353.348 145.485 350.529 142.303 345.777 140.325 C 350.828 138.347 354.716 133.789 356.453 126.823 C 359.498 114.611 351.67 111.515 343.07 111.515 L 325.44 111.515 C 322.516 111.515 319.249 112.891 318.562 115.643 Z M 320.164 162.685 L 324.452 145.485 L 333.052 145.485 C 337.352 145.485 339.417 147.549 337.959 153.397 L 337.616 154.773 C 336.244 160.277 333.064 162.685 328.764 162.685 Z M 330.006 123.211 L 339.036 123.211 C 342.304 123.211 343.187 126.221 342.437 129.231 C 341.708 132.155 339.323 135.165 336.055 135.165 L 327.025 135.165 Z M 387.03 174.381 C 389.61 174.381 391.629 171.457 392.358 168.533 C 393.087 165.609 392.526 162.685 389.946 162.685 L 370.338 162.685 L 382.088 115.557 C 382.796 112.719 379.742 111.515 376.388 111.515 C 373.034 111.515 369.38 112.719 368.672 115.557 L 355.035 170.253 C 354.349 173.005 356.93 174.381 359.854 174.381 Z M 423.389 123.211 L 446.437 123.211 C 449.017 123.211 451.165 120.459 451.958 117.277 C 452.644 114.525 452.191 111.515 449.353 111.515 L 418.737 111.515 C 415.813 111.515 412.546 112.891 411.859 115.643 L 398.244 170.253 C 397.557 173.005 400.138 174.381 403.062 174.381 L 433.678 174.381 C 436.516 174.381 438.471 171.371 439.157 168.619 C 439.95 165.437 439.175 162.685 436.595 162.685 L 413.547 162.685 L 417.192 148.065 L 430.092 148.065 C 432.93 148.065 434.82 145.313 435.399 142.991 C 436.085 140.239 435.245 137.745 432.665 137.745 L 419.765 137.745 Z M 460.898 168.619 C 460.126 171.715 465.095 175.241 467.847 175.241 C 468.793 175.241 470.448 174.811 471.372 173.865 L 482.157 161.997 L 487.11 173.865 C 487.541 174.897 488.745 175.241 489.777 175.241 C 493.303 175.241 499.492 171.457 500.2 168.619 C 500.414 167.759 500.22 166.813 499.983 166.383 L 493.374 153.569 L 505.17 141.787 C 505.986 140.927 506.394 140.325 506.566 139.637 C 507.316 136.627 502.476 132.929 499.38 132.929 C 498.434 132.929 496.973 133.273 496.006 134.391 L 486.252 145.571 L 482.181 134.305 C 481.729 133.015 480.202 132.929 479.686 132.929 C 476.246 132.929 469.734 136.627 468.984 139.637 C 468.769 140.497 469.071 141.357 469.308 141.787 L 475.164 153.483 L 462.229 166.383 C 461.649 166.985 461.091 167.845 460.898 168.619 Z M 540.362 111.515 C 529.268 111.515 520.219 116.073 517.539 126.823 C 515.759 133.961 518.127 138.261 522.772 139.981 C 515.872 142.131 510.286 147.291 508.077 156.149 L 507.82 157.181 C 504.625 169.995 512.691 174.897 524.559 174.897 C 536.427 174.897 546.851 169.995 550.046 157.181 L 550.303 156.149 C 552.512 147.291 549.584 142.131 543.756 139.981 C 549.259 138.261 553.771 133.961 555.551 126.823 C 558.231 116.073 551.456 111.515 540.362 111.515 Z M 537.037 155.547 C 535.601 161.309 532.141 164.147 527.239 164.147 C 522.509 164.147 520.164 161.481 521.643 155.547 L 522.115 153.655 C 523.509 148.065 527.076 145.485 531.892 145.485 C 536.708 145.485 538.903 148.065 537.509 153.655 Z M 537.681 122.265 C 541.551 122.265 543.316 124.157 542.222 128.543 C 541.107 133.015 538.442 134.735 534.572 134.735 C 530.702 134.735 528.895 133.015 530.01 128.543 C 531.104 124.157 533.811 122.265 537.681 122.265 Z M 586.119 135.767 C 581.991 135.767 577.928 136.541 574.426 139.551 L 576.356 131.811 C 577.835 125.877 581.51 123.211 586.584 123.211 C 590.626 123.211 593.637 124.931 592.822 128.199 C 591.836 132.155 594.868 133.101 598.566 133.101 C 602.866 133.101 605.166 131.811 606.195 127.683 C 607.975 120.545 604.464 111.515 589.93 111.515 C 577.546 111.515 566.628 117.019 562.94 131.811 L 557.257 154.601 C 553.569 169.393 561.485 174.897 573.353 174.897 C 585.221 174.897 595.795 169.393 599.483 154.601 L 599.676 153.827 C 603.107 140.067 595.923 135.767 586.119 135.767 Z M 570.823 153.999 C 572.239 148.323 575.806 146.087 580.45 146.087 C 585.352 146.087 587.59 148.495 586.025 154.773 L 585.832 155.547 C 584.352 161.481 580.871 164.061 576.055 164.061 C 571.239 164.061 568.958 161.481 570.438 155.547 Z M 606.02 153.741 C 605.205 157.009 606.303 159.159 608.711 159.159 L 631.071 159.159 C 633.135 159.159 635.735 157.009 636.55 153.741 C 637.322 150.645 635.859 148.237 633.795 148.237 L 611.435 148.237 C 609.027 148.237 606.792 150.645 606.02 153.741 Z M 672.024 135.767 C 667.896 135.767 663.833 136.541 660.33 139.551 L 662.26 131.811 C 663.74 125.877 667.414 123.211 672.488 123.211 C 676.53 123.211 679.541 124.931 678.727 128.199 C 677.74 132.155 680.772 133.101 684.47 133.101 C 688.77 133.101 691.07 131.811 692.099 127.683 C 693.879 120.545 690.368 111.515 675.834 111.515 C 663.45 111.515 652.532 117.019 648.844 131.811 L 643.162 154.601 C 639.474 169.393 647.389 174.897 659.257 174.897 C 671.125 174.897 681.7 169.393 685.388 154.601 L 685.581 153.827 C 689.012 140.067 681.828 135.767 672.024 135.767 Z M 656.728 153.999 C 658.143 148.323 661.711 146.087 666.355 146.087 C 671.257 146.087 673.494 148.495 671.929 154.773 L 671.736 155.547 C 670.256 161.481 666.775 164.061 661.959 164.061 C 657.143 164.061 654.862 161.481 656.342 155.547 Z M 709.297 170.253 C 708.611 173.005 711.622 174.381 714.976 174.381 C 718.33 174.381 722.027 173.005 722.713 170.253 L 724.986 161.137 L 728.684 161.137 C 730.748 161.137 733.584 158.041 734.356 154.945 C 735.127 151.849 734.523 148.753 731.771 148.753 L 728.073 148.753 L 729.574 142.733 C 730.282 139.895 727.228 138.691 723.874 138.691 C 720.52 138.691 716.866 139.895 716.158 142.733 L 714.657 148.753 L 707.261 148.753 L 730.095 118.223 C 730.503 117.621 730.804 117.105 730.933 116.589 C 731.705 113.493 727.812 111.515 725.49 111.515 C 723.34 111.515 720.954 112.461 719.042 114.955 L 689.463 153.913 C 688.711 154.859 688.303 155.805 688.132 156.493 C 687.381 159.503 688.952 161.137 691.446 161.137 L 711.57 161.137 Z" transform="matrix(1, 0, 0, 1, -11.181388, 24.459822)" style="fill: rgb(51, 51, 51); text-wrap-mode: nowrap;"/><path transform="matrix(1, 0, 0, 1, -11.181388, 24.459822)" style="fill: rgb(51, 51, 51); text-wrap-mode: nowrap;"/><path d="M 14.999 102.399 L 600.851 101.7 L 597.438 117.075 L 11.018 117.075 L 14.999 102.399 Z" style="fill: rgb(51, 51, 51);"/></svg>